{"glyphs":{":":{"x_min":0,"x_max":178,"ha":178,"o":"m 89 -15 q 72 -15 60 -2 q 49 10 49 26 q 49 43 61 55 q 73 66 89 66 q 106 66 117 54 q 129 42 129 26 q 129 9 117 -3 q 105 -15 89 -15 z m 89 292 q 72 292 60 305 q 49 317 49 333 q 49 351 61 362 q 73 374 89 374 q 106 374 117 361 q 129 349 129 333 q 129 316 117 304 q 105 292 89 292 z"},"$":{"x_min":0,"x_max":508,"ha":508,"o":"m 213 431 l 213 667 q 169 660 137 623 q 109 590 109 551 q 109 535 114 518 q 137 454 213 431 z m 273 46 q 328 56 365 105 q 400 151 400 204 q 400 266 353 310 q 321 340 264 355 l 273 353 z m 273 -70 l 213 -70 l 213 -19 q 180 -19 118 2 q 91 11 50 30 l 73 84 q 125 62 137 58 q 190 41 213 41 l 213 368 q 153 385 114 420 q 49 476 49 552 q 49 614 93 663 q 140 716 213 728 l 213 773 l 273 773 l 273 732 q 320 732 379 711 q 399 706 445 686 l 422 631 q 380 648 361 655 q 312 671 273 672 l 273 415 q 356 393 399 349 q 459 288 459 204 q 459 130 413 69 q 356 -4 273 -15 z"},"?":{"x_min":0,"x_max":523,"ha":523,"o":"m 101 83 l 101 114 q 101 228 211 322 q 234 343 288 387 q 355 443 377 487 q 396 521 396 556 q 396 576 383 597 q 364 630 317 646 q 291 655 262 655 q 187 655 124 578 l 78 616 q 127 681 188 703 q 225 715 259 715 q 346 715 406 663 q 456 614 456 555 q 456 448 334 347 l 271 294 q 253 279 228 255 q 201 227 190 209 q 161 166 161 114 l 161 84 z m 135 -15 q 114 -15 101 2 q 93 14 93 25 q 93 47 112 60 q 123 66 134 66 q 155 66 168 48 q 174 37 174 26 q 174 3 153 -10 q 144 -15 135 -15 z"},"<":{"x_min":0,"x_max":590,"ha":590,"o":"m 518 98 l 49 310 l 49 356 l 518 567 l 542 513 l 143 333 l 542 152 z"},"'":{"x_min":0,"x_max":157,"ha":157,"o":"m 108 506 l 49 506 l 49 714 l 108 714 z"},"=":{"x_min":0,"x_max":586,"ha":586,"o":"m 537 372 l 49 372 l 49 432 l 537 432 z m 537 235 l 49 235 l 49 295 l 537 295 z"},"a":{"x_min":0,"x_max":614,"ha":614,"o":"m 307 -17 q 236 -17 178 19 q 119 54 84 113 q 49 172 49 243 q 49 314 84 373 q 119 433 178 468 q 236 503 307 503 q 355 503 398 488 q 440 473 469 453 q 497 434 505 418 l 505 479 l 565 479 l 565 -15 l 505 -15 l 505 68 q 497 53 469 34 q 440 14 398 -1 q 355 -17 307 -17 z m 307 43 q 362 43 407 70 q 452 96 478 142 q 504 187 504 243 q 504 299 478 345 q 452 390 407 417 q 362 443 307 443 q 250 443 206 417 q 161 391 135 345 q 108 300 108 243 q 108 187 135 141 q 161 96 206 70 q 251 43 307 43 z"},"L":{"x_min":0,"x_max":533,"ha":533,"o":"m 484 -14 l 49 -14 l 49 715 l 108 715 l 108 46 l 484 46 z"},"3":{"x_min":0,"x_max":579,"ha":579,"o":"m 402 444 q 442 428 484 369 q 530 305 530 227 q 530 212 528 197 q 513 94 436 34 q 371 -18 288 -18 q 272 -18 257 -16 q 189 -7 136 35 q 83 78 59 143 l 49 171 l 105 192 q 121 146 135 125 q 148 103 173 83 q 213 50 265 43 q 276 42 288 42 q 350 42 400 81 q 457 126 468 204 q 470 216 470 227 q 470 287 436 334 q 396 391 325 407 q 308 411 288 411 q 271 411 240 408 l 243 471 q 264 469 267 469 q 271 468 273 468 q 276 468 282 468 q 300 468 317 472 q 338 477 356 488 q 368 494 376 502 q 399 523 403 549 q 404 555 404 561 q 404 579 394 597 q 390 605 383 612 q 351 646 301 651 q 291 653 281 653 q 242 653 206 633 l 180 618 l 150 669 q 192 695 219 704 q 246 713 282 713 q 295 713 308 711 q 379 702 426 653 q 438 640 446 626 q 464 594 464 561 q 464 549 462 538 q 454 494 418 459 q 404 446 401 445 z"},";":{"x_min":0,"x_max":186,"ha":186,"o":"m 67 -9 q 63 -7 60 -3 q 49 8 49 23 q 49 38 60 49 q 72 61 88 61 q 105 61 121 48 q 137 36 137 14 q 137 2 130 -11 l 104 -59 l 55 -31 z m 90 292 q 73 292 62 305 q 50 317 50 333 q 50 350 62 362 q 74 374 90 374 q 107 374 119 361 q 130 349 130 333 q 130 316 118 304 q 106 292 90 292 z"},"J":{"x_min":0,"x_max":612,"ha":612,"o":"m 307 -15 q 235 -15 177 21 q 118 56 83 115 q 49 174 49 246 l 50 285 l 109 283 l 108 246 q 108 189 135 144 q 162 99 207 72 q 252 45 307 45 q 348 45 384 61 q 419 76 447 104 q 479 137 491 174 q 504 210 504 257 l 504 714 l 563 714 l 563 258 q 563 139 489 62 q 454 26 407 6 q 360 -15 307 -15 z"},"V":{"x_min":0,"x_max":790,"ha":790,"o":"m 418 -15 l 371 -15 l 49 715 l 115 715 l 395 80 l 676 714 l 741 715 z"},"\"":{"x_min":0,"x_max":230,"ha":230,"o":"m 95 506 l 35 506 l 35 714 l 95 714 z m 181 506 l 122 506 l 122 714 l 181 714 z"},"7":{"x_min":0,"x_max":461,"ha":461,"o":"m 103 -27 l 49 -2 q 110 140 141 209 q 171 279 188 317 q 205 356 220 392 q 236 428 264 491 q 292 554 335 655 l 50 655 l 50 715 l 413 715 l 413 682 l 404 664 q 346 529 317 462 q 287 395 272 359 q 257 325 241 288 q 225 252 195 184 q 166 116 103 -27 z"},"S":{"x_min":0,"x_max":508,"ha":508,"o":"m 228 -17 q 195 -17 159 -8 q 140 -4 118 4 q 98 10 77 20 l 50 31 l 73 87 q 103 74 113 70 q 123 65 137 60 q 156 54 173 50 q 202 43 228 43 q 271 43 304 59 q 338 75 360 102 q 383 129 394 164 q 399 184 399 206 q 399 218 397 231 q 391 271 362 303 q 332 336 276 354 q 254 361 231 365 q 153 386 110 425 q 66 465 54 514 q 49 534 49 555 q 49 575 54 595 q 65 634 94 667 q 122 698 165 716 q 208 734 263 734 q 299 734 341 725 q 359 721 380 714 q 398 708 418 700 l 445 688 l 422 633 q 394 645 384 648 q 374 652 361 657 q 343 663 328 667 q 293 674 263 674 q 221 674 189 661 q 158 648 138 626 q 119 605 112 580 q 109 567 109 554 q 109 541 112 528 q 120 496 153 467 q 185 439 245 423 q 294 411 338 392 q 382 373 414 337 q 445 301 457 242 q 459 224 459 208 q 459 177 451 147 q 438 101 406 63 q 375 27 330 5 q 285 -17 228 -17 z"},"}":{"x_min":0,"x_max":413,"ha":413,"o":"m 98 -66 l 79 -65 l 49 -62 l 53 -3 q 75 -5 79 -5 q 82 -5 86 -6 q 89 -6 95 -6 q 124 -6 138 4 q 152 14 160 33 q 167 51 169 77 q 171 103 172 132 q 172 174 177 214 q 182 254 201 287 q 219 321 228 324 q 219 328 201 361 q 182 395 177 435 q 172 475 172 517 q 171 546 169 572 q 167 598 160 616 q 152 635 138 645 q 124 655 96 655 l 83 654 l 54 651 l 49 712 l 98 715 q 146 715 173 697 q 200 679 212 650 q 225 622 228 588 q 231 554 231 518 q 232 487 235 458 q 238 428 247 406 q 257 384 277 372 q 296 359 334 359 l 364 359 l 364 290 l 334 290 q 296 290 277 277 q 257 265 247 243 q 238 221 235 191 q 232 162 231 131 q 231 95 228 61 q 225 27 212 -2 q 200 -31 173 -49 q 146 -66 98 -66 z"},"Z":{"x_min":0,"x_max":561,"ha":561,"o":"m 486 -15 l 49 -14 l 49 24 q 125 150 164 214 q 202 278 222 312 q 243 345 261 376 q 281 410 321 476 q 361 542 430 656 l 74 656 l 74 716 l 512 716 l 512 678 l 502 663 l 131 45 l 486 45 z"},"x":{"x_min":0,"x_max":564,"ha":564,"o":"m 515 -15 l 433 -15 l 280 183 l 126 -15 l 51 -15 l 242 231 l 49 479 l 125 479 l 280 280 l 435 479 l 511 479 l 318 231 l 471 34 z"},")":{"x_min":0,"x_max":319,"ha":319,"o":"m 97 -120 l 49 -84 q 135 30 173 124 q 211 218 211 313 q 211 411 173 497 q 134 583 49 682 l 94 721 l 114 699 q 271 514 271 313 q 271 206 229 104 q 188 1 97 -120 z"},"&":{"x_min":0,"x_max":715,"ha":715,"o":"m 534 240 q 534 236 534 230 q 534 147 483 80 q 454 43 412 19 q 371 -6 321 -12 q 306 -14 291 -14 q 209 -14 142 38 q 67 98 51 201 q 49 216 49 231 q 49 313 100 381 q 123 409 146 428 q 170 447 179 451 l 181 452 q 146 472 128 510 q 118 535 118 558 q 118 574 122 589 q 126 606 134 622 q 166 678 215 699 q 245 711 272 711 q 282 711 291 710 q 330 705 360 678 q 391 649 399 598 l 403 569 l 344 560 q 340 594 335 609 q 330 624 319 634 q 304 648 284 651 l 272 652 q 256 652 239 645 q 208 631 188 594 q 182 584 180 575 q 177 567 177 558 q 177 545 182 536 q 191 514 224 496 q 245 484 277 476 l 306 468 l 292 414 l 268 414 q 192 402 147 345 q 109 295 109 231 q 109 219 110 208 q 121 130 179 85 q 228 46 291 46 q 302 46 313 47 q 391 59 436 117 q 474 166 474 230 q 474 242 473 253 l 472 257 l 462 260 q 451 264 439 267 q 428 270 417 270 q 411 270 408 269 q 406 268 404 266 l 385 242 l 339 281 q 359 307 374 318 q 390 330 417 330 q 435 330 455 324 q 476 319 496 313 q 516 307 534 302 q 552 297 568 297 q 591 297 601 311 l 620 335 l 667 297 l 648 273 q 632 254 611 245 q 590 237 569 237 q 557 237 546 238 q 537 239 534 240 z"},"_":{"x_min":0,"x_max":586,"ha":586,"o":"m 537 -48 l 49 -48 l 49 12 l 537 12 z"},"v":{"x_min":0,"x_max":582,"ha":582,"o":"m 314 -15 l 267 -15 l 49 479 l 115 480 l 291 80 l 468 479 l 533 479 z"},"O":{"x_min":0,"x_max":867,"ha":867,"o":"m 434 30 q 524 30 598 74 q 671 119 715 194 q 759 268 759 358 q 759 427 734 486 q 708 546 664 591 q 619 636 560 662 q 501 687 434 687 q 344 687 271 643 q 197 599 153 525 q 108 450 108 358 q 108 268 152 193 q 196 119 270 74 q 344 30 434 30 z m 434 -30 q 328 -30 240 22 q 152 75 101 163 q 49 251 49 358 q 49 466 101 554 q 153 643 240 695 q 328 747 434 747 q 540 747 627 695 q 715 642 767 554 q 818 466 818 358 q 818 252 767 164 q 715 75 628 22 q 541 -30 434 -30 z"},"(":{"x_min":0,"x_max":319,"ha":319,"o":"m 223 -120 q 132 1 90 104 q 49 206 49 313 q 49 514 206 699 l 226 721 l 271 682 q 185 583 147 497 q 108 411 108 313 q 108 218 146 124 q 185 30 271 -84 z"},"C":{"x_min":0,"x_max":767,"ha":767,"o":"m 434 -37 q 329 -37 241 16 q 153 69 101 157 q 49 246 49 352 q 49 458 101 547 q 153 635 241 688 q 329 741 434 741 q 508 741 569 716 q 631 690 694 640 l 658 593 q 623 621 597 636 q 571 652 540 663 q 489 681 434 681 q 343 681 269 637 q 195 593 152 518 q 108 444 108 352 q 108 260 152 186 q 195 111 269 67 q 343 23 434 23 q 495 23 552 45 q 608 67 656 112 l 677 132 l 718 88 q 680 52 648 30 q 616 7 575 -9 q 506 -37 434 -37 z"},"W":{"x_min":0,"x_max":1052,"ha":1052,"o":"m 722 -15 l 526 592 l 330 -15 l 280 -14 l 49 715 l 112 714 l 305 103 l 503 717 l 549 717 l 747 103 l 940 715 l 1003 715 l 772 -14 z"},"A":{"x_min":0,"x_max":789,"ha":789,"o":"m 740 -15 l 675 -14 l 543 284 l 246 284 l 113 -14 l 49 -15 l 372 715 l 418 715 z m 517 344 l 395 620 l 272 344 z"},"f":{"x_min":0,"x_max":324,"ha":324,"o":"m 146 -15 l 87 -15 q 87 84 87 126 q 87 167 87 188 q 87 210 86 230 q 86 252 86 298 q 86 344 86 426 l 49 426 l 49 486 l 86 486 l 86 562 q 86 577 89 590 q 101 631 133 655 q 166 677 207 677 q 226 677 246 673 l 275 665 l 261 607 q 242 612 238 613 q 231 615 226 616 q 220 617 211 617 l 208 617 q 185 617 167 605 q 152 595 147 576 q 146 568 146 559 l 146 486 l 221 486 l 221 426 l 146 426 q 146 344 146 298 q 146 252 146 230 q 146 210 146 188 q 146 167 146 126 q 146 84 146 -15 z"},"Q":{"x_min":0,"x_max":868,"ha":868,"o":"m 434 30 q 524 30 598 74 q 672 119 716 194 q 759 268 759 358 q 759 427 734 486 q 708 546 664 591 q 619 636 560 662 q 501 687 434 687 q 345 687 271 643 q 197 599 153 525 q 109 450 109 358 q 109 268 153 193 q 196 119 270 74 q 344 30 434 30 z m 648 -124 q 613 -124 573 -109 q 534 -94 493 -75 q 452 -56 411 -41 q 371 -26 335 -26 q 295 -26 269 -52 l 248 -74 l 206 -31 q 233 -2 243 6 q 250 12 250 14 l 250 15 q 215 30 162 84 q 109 137 79 208 q 49 278 49 358 q 49 439 79 510 q 109 580 162 633 q 214 687 284 717 q 354 747 434 747 q 514 747 583 717 q 653 687 706 633 q 759 580 789 510 q 819 439 819 358 q 819 278 789 208 q 759 137 706 84 q 610 -14 523 -23 q 555 -38 589 -51 q 623 -63 648 -63 q 668 -63 682 -52 l 703 -32 l 744 -74 q 714 -104 696 -114 q 679 -124 648 -124 z"},"w":{"x_min":0,"x_max":908,"ha":908,"o":"m 454 102 q 452 101 446 90 q 437 77 423 61 q 392 24 350 5 q 309 -14 267 -14 q 224 -14 182 5 q 141 24 109 61 q 54 126 49 225 l 49 479 l 108 479 l 108 249 l 109 233 q 109 193 121 159 q 133 125 155 99 q 178 72 206 59 q 235 46 266 46 q 298 46 326 59 q 354 72 377 99 q 424 153 424 233 l 424 249 l 424 479 l 484 479 l 484 232 q 486 152 530 99 q 553 72 582 59 q 610 46 642 46 q 673 46 702 59 q 730 72 753 99 q 799 153 799 233 l 799 479 l 859 479 l 859 224 q 854 126 799 61 q 768 24 726 5 q 684 -14 642 -14 q 599 -14 558 5 q 516 24 485 61 q 471 78 461 92 q 456 101 454 102 z"},"-":{"x_min":0,"x_max":341,"ha":341,"o":"m 292 303 l 49 303 l 49 363 l 292 363 z"},"E":{"x_min":0,"x_max":525,"ha":525,"o":"m 472 -15 l 78 -15 l 49 -14 l 49 714 q 78 715 477 715 l 477 655 l 108 655 l 108 397 l 474 397 l 474 338 l 108 338 l 108 45 l 472 45 z"},"s":{"x_min":0,"x_max":397,"ha":397,"o":"m 182 -14 q 159 -14 133 -8 q 121 -5 104 0 q 92 4 84 8 q 75 11 49 23 l 72 78 l 100 66 q 112 61 124 57 q 136 53 147 50 q 166 45 182 45 q 210 45 232 57 q 254 68 268 86 q 282 104 287 127 q 289 137 289 146 q 289 159 286 170 q 279 193 260 211 q 240 230 205 240 l 170 248 q 125 262 96 287 q 68 312 58 343 q 51 363 51 382 q 51 395 54 408 q 61 439 83 465 q 104 488 135 501 q 166 515 206 515 q 232 515 262 508 q 273 505 288 500 q 297 498 303 495 q 310 492 317 489 q 321 487 342 479 l 319 423 l 292 435 q 280 440 269 443 q 259 447 251 449 q 250 449 247 450 q 226 455 206 455 q 179 455 159 446 q 140 438 127 425 q 116 411 112 395 q 111 389 111 383 q 111 373 114 363 q 121 345 140 329 q 160 312 196 303 q 202 301 208 300 q 220 298 233 294 q 280 278 307 250 q 334 222 343 187 q 349 167 349 146 q 349 130 345 115 q 337 79 315 49 q 293 21 259 3 q 225 -14 182 -14 z"},">":{"x_min":0,"x_max":590,"ha":590,"o":"m 73 98 l 49 152 l 448 333 l 49 513 l 73 567 l 542 356 l 542 310 z"},"l":{"x_min":0,"x_max":158,"ha":158,"o":"m 109 -15 l 49 -15 l 49 698 l 109 698 z"},"8":{"x_min":0,"x_max":547,"ha":547,"o":"m 273 44 q 319 44 357 66 q 394 89 416 127 q 438 165 438 210 q 438 257 416 294 q 394 332 357 355 q 319 377 273 377 q 228 377 191 355 q 153 333 131 295 q 108 257 108 210 q 108 164 131 126 q 153 89 190 66 q 228 44 273 44 z m 273 438 q 318 438 349 470 q 380 501 380 547 q 380 592 349 623 q 318 655 273 655 q 229 655 198 623 q 167 592 167 547 q 167 501 198 470 q 229 438 273 438 z m 273 -16 q 211 -16 160 14 q 109 45 79 96 q 49 148 49 210 q 49 285 90 342 q 132 400 167 413 q 156 419 131 459 q 107 499 107 547 q 107 616 156 666 q 204 715 273 715 q 343 715 391 666 q 440 616 440 547 q 440 477 391 428 q 378 415 378 413 l 380 413 q 415 400 457 342 q 498 285 498 210 q 498 148 468 97 q 438 45 387 14 q 336 -16 273 -16 z"},"\\":{"x_min":0,"x_max":710,"ha":710,"o":"m 615 -27 l 49 692 l 96 730 l 662 10 z"},"e":{"x_min":0,"x_max":577,"ha":577,"o":"m 178 96 l 413 418 q 398 429 368 439 q 338 448 307 448 q 295 448 283 447 q 205 438 151 372 q 130 344 119 312 q 109 280 109 248 q 109 236 110 224 q 119 148 178 96 z m 307 -12 q 265 -12 224 2 q 184 16 148 44 q 63 113 51 217 q 49 232 49 248 q 49 291 62 331 q 76 372 104 409 q 174 494 276 507 q 291 508 307 508 q 349 508 389 495 q 430 481 466 453 l 495 429 l 229 64 q 259 48 307 48 q 319 48 331 49 q 409 59 463 125 l 481 149 l 528 112 q 449 3 338 -10 q 323 -12 307 -12 z"},"b":{"x_min":0,"x_max":614,"ha":614,"o":"m 307 -17 q 259 -17 216 -2 q 174 14 145 33 q 117 53 108 68 l 108 -15 l 49 -15 l 49 698 l 108 698 l 108 418 q 117 434 145 453 q 174 473 216 488 q 259 503 307 503 q 377 503 436 468 q 495 433 530 373 q 565 314 565 243 q 565 172 530 113 q 495 54 436 19 q 377 -17 307 -17 z m 307 43 q 363 43 408 70 q 453 96 479 142 q 505 187 505 243 q 505 300 479 345 q 453 391 408 417 q 363 443 307 443 q 251 443 207 417 q 162 390 135 345 q 109 299 109 243 q 109 201 125 165 q 140 129 167 102 q 195 74 230 58 q 266 43 307 43 z"},"%":{"x_min":0,"x_max":724,"ha":724,"o":"m 96 -27 l 49 10 l 615 730 l 662 692 z m 537 -15 q 480 -15 439 27 q 398 69 398 125 q 398 181 439 223 q 480 265 537 265 q 592 265 634 223 q 675 181 675 125 q 675 69 634 27 q 592 -15 537 -15 z m 537 45 q 570 45 593 68 q 615 90 615 125 q 615 159 592 181 q 570 205 537 205 q 502 205 480 182 q 458 160 458 125 q 458 90 480 68 q 502 45 537 45 z m 192 431 q 136 431 95 473 q 54 515 54 571 q 54 609 73 641 q 92 672 124 691 q 155 710 192 710 q 248 710 289 669 q 330 627 330 571 q 330 534 311 502 q 292 470 261 451 q 229 431 192 431 z m 192 491 q 226 491 248 514 q 271 537 271 571 q 271 605 248 627 q 226 650 192 650 q 158 650 136 628 q 113 605 113 571 q 113 537 135 514 q 158 491 192 491 z"},"m":{"x_min":0,"x_max":907,"ha":907,"o":"m 858 -15 l 799 -15 l 799 243 q 799 328 752 387 q 706 444 641 444 q 611 444 582 430 q 553 416 531 388 q 508 360 496 323 q 483 286 483 243 l 483 -15 l 424 -15 l 423 243 q 423 286 411 323 q 398 360 376 388 q 354 416 325 430 q 296 444 266 444 q 236 444 207 430 q 178 416 155 387 q 114 336 109 260 l 109 -15 l 49 -15 l 49 479 l 109 479 l 109 425 q 140 464 181 484 q 222 503 266 503 q 310 503 351 484 q 392 464 423 425 q 451 389 454 382 q 456 389 484 425 q 516 464 557 484 q 598 503 641 503 q 685 503 726 484 q 767 464 798 425 q 854 355 858 253 z"},"#":{"x_min":0,"x_max":752,"ha":752,"o":"m 168 266 l 213 438 l 95 438 l 95 498 l 229 498 l 286 713 l 346 713 l 290 498 l 521 498 l 577 713 l 638 713 l 581 498 l 703 498 l 703 438 l 565 438 l 520 266 l 657 266 l 657 207 l 504 207 l 446 -15 l 385 -15 l 443 207 l 213 207 l 154 -15 l 94 -15 l 152 207 l 49 207 l 49 266 z m 274 438 l 229 266 l 459 266 l 504 438 z"},",":{"x_min":0,"x_max":186,"ha":186,"o":"m 67 -9 q 63 -7 60 -3 q 49 8 49 23 q 49 38 60 49 q 72 61 88 61 q 105 61 121 48 q 137 36 137 14 q 137 2 130 -11 l 104 -59 l 55 -31 z"},"n":{"x_min":0,"x_max":532,"ha":532,"o":"m 483 -15 l 423 -15 l 423 243 q 423 286 411 323 q 398 360 376 388 q 354 416 325 430 q 296 444 266 444 q 236 444 207 430 q 178 416 155 387 q 114 336 108 260 l 108 -15 l 49 -15 l 49 479 l 108 479 l 108 425 q 140 464 181 484 q 222 503 266 503 q 309 503 350 484 q 391 464 423 425 q 478 355 483 253 z"},"h":{"x_min":0,"x_max":532,"ha":532,"o":"m 483 -15 l 423 -15 l 423 243 q 423 286 411 323 q 398 360 376 388 q 354 416 325 430 q 296 444 266 444 q 236 444 207 430 q 178 416 155 387 q 114 336 108 260 l 108 -15 l 49 -15 l 49 698 l 108 698 l 108 425 q 140 464 181 484 q 222 503 266 503 q 309 503 350 484 q 391 464 423 425 q 478 355 483 253 z"},"z":{"x_min":0,"x_max":418,"ha":418,"o":"m 353 -15 l 49 -15 l 49 24 l 288 419 l 65 419 l 65 479 l 370 479 l 370 441 l 131 45 l 353 45 z"},"B":{"x_min":0,"x_max":549,"ha":549,"o":"m 219 434 l 219 435 q 271 435 299 441 q 326 448 350 468 q 372 485 380 504 q 388 523 388 549 q 388 592 348 624 q 309 656 249 656 l 109 656 l 109 434 z m 236 45 q 294 45 341 67 q 387 89 414 125 q 440 161 440 204 q 440 243 428 271 q 415 300 383 325 q 350 353 311 364 q 272 374 221 374 l 109 374 l 109 45 z m 236 -15 l 49 -15 l 49 714 l 249 716 q 327 716 385 671 q 442 626 448 557 l 448 534 q 444 485 416 449 q 387 413 372 406 q 410 393 454 341 q 497 289 500 220 l 500 200 q 498 139 462 91 q 426 42 367 13 q 308 -15 236 -15 z"},"K":{"x_min":0,"x_max":583,"ha":583,"o":"m 108 -15 l 49 -15 l 49 715 l 108 715 l 108 365 l 451 715 l 535 715 l 254 428 q 296 361 321 320 q 346 279 360 256 q 375 232 390 208 q 405 183 433 137 q 461 92 527 -14 l 457 -14 l 211 384 q 202 375 190 363 q 179 351 173 345 q 167 338 159 331 q 152 324 140 311 q 128 298 108 279 z"},"R":{"x_min":0,"x_max":568,"ha":568,"o":"m 188 337 q 237 337 283 342 q 287 343 287 343 q 288 343 290 343 q 292 344 294 344 q 361 357 398 397 q 422 424 432 456 q 439 476 439 497 q 439 508 437 518 q 431 557 400 586 q 369 617 335 632 q 301 646 263 651 q 226 656 186 656 l 108 655 l 108 338 q 114 338 140 337 z m 520 -15 l 448 -15 l 268 280 q 234 277 190 277 l 139 277 q 120 278 108 278 l 108 -15 l 49 -15 l 49 715 l 81 715 q 111 715 133 715 l 187 716 q 232 716 275 710 q 319 705 361 686 q 402 667 442 630 q 487 585 496 528 q 499 513 499 497 q 499 467 489 437 q 475 393 441 356 q 394 304 332 291 l 493 26 z"},"T":{"x_min":0,"x_max":532,"ha":532,"o":"m 296 -15 l 236 -15 l 236 655 l 49 655 l 49 715 l 483 715 l 483 655 l 296 655 z"},"P":{"x_min":0,"x_max":547,"ha":547,"o":"m 191 338 q 245 338 294 345 q 361 358 398 398 q 422 425 432 457 q 439 477 439 498 q 439 509 437 519 q 431 558 400 587 q 369 618 335 633 q 301 647 263 652 q 226 657 186 657 l 109 656 l 109 339 q 114 339 140 338 z m 109 -15 l 49 -15 l 49 716 l 81 716 q 111 716 134 716 l 188 717 q 232 717 276 711 q 319 706 361 687 q 403 668 442 631 q 487 586 496 529 q 499 514 499 498 q 499 468 489 438 q 476 394 441 357 q 392 303 304 286 q 247 278 187 278 l 139 278 q 121 279 109 279 z"},"|":{"x_min":0,"x_max":157,"ha":157,"o":"m 108 -64 l 49 -64 l 49 713 l 108 713 z"},"t":{"x_min":0,"x_max":318,"ha":318,"o":"m 189 -15 l 130 -15 q 130 84 130 126 q 130 167 130 189 q 130 210 129 230 q 129 252 129 298 q 129 344 129 426 l 49 426 l 49 486 l 129 486 l 129 588 l 188 588 l 188 486 l 270 486 l 270 426 l 188 426 z"},"M":{"x_min":0,"x_max":712,"ha":712,"o":"m 663 -15 l 604 -15 l 604 582 l 372 163 l 340 163 l 108 583 l 108 -15 l 49 -15 l 49 715 l 103 715 l 356 258 l 609 715 l 663 715 z"},"g":{"x_min":0,"x_max":614,"ha":614,"o":"m 307 43 q 361 43 406 70 q 451 97 478 142 q 505 188 505 243 q 505 299 478 344 q 451 390 406 417 q 361 443 307 443 q 251 443 207 416 q 162 389 135 344 q 108 298 108 243 q 108 188 135 143 q 162 97 207 70 q 252 43 307 43 z m 319 -187 l 312 -187 q 208 -185 131 -106 q 100 -72 84 -34 l 71 -7 l 125 17 q 133 1 134 -1 q 139 -12 143 -20 q 153 -41 175 -64 q 234 -125 312 -127 q 397 -127 455 -72 q 471 -57 483 -38 q 497 -19 501 -8 q 505 2 505 25 l 505 76 l 489 60 q 454 24 407 3 q 360 -17 307 -17 q 253 -17 207 3 q 160 24 125 60 q 89 95 69 143 q 49 190 49 243 q 49 297 69 344 q 89 392 125 427 q 160 463 207 483 q 253 503 307 503 q 360 503 407 483 q 454 463 489 427 l 505 412 l 505 479 l 565 479 l 565 23 q 564 -5 557 -27 q 549 -48 533 -71 q 517 -96 496 -116 q 420 -187 319 -187 z"},"j":{"x_min":0,"x_max":222,"ha":222,"o":"m 77 -197 l 49 -143 q 65 -136 68 -134 q 78 -128 84 -124 q 90 -120 95 -110 q 103 -97 104 -78 l 103 479 l 162 479 q 162 361 162 310 q 162 260 162 234 q 163 208 163 184 q 163 157 163 100 q 163 43 164 -80 q 159 -151 104 -183 z m 133 507 q 116 507 104 519 q 93 531 93 547 q 93 564 105 576 q 117 588 133 588 q 150 588 162 576 q 173 563 173 547 q 173 530 161 519 q 149 507 133 507 z"},"i":{"x_min":0,"x_max":178,"ha":178,"o":"m 119 -15 l 59 -15 l 59 479 l 119 479 z m 89 507 q 73 507 61 519 q 49 531 49 547 q 49 563 60 576 q 72 588 89 588 q 105 588 117 576 q 129 565 129 547 q 129 531 118 519 q 106 507 89 507 z"},"y":{"x_min":0,"x_max":561,"ha":561,"o":"m 182 -184 q 204 -130 211 -114 q 218 -97 221 -88 q 225 -80 228 -71 q 231 -62 239 -44 q 246 -26 258 5 l 49 479 l 114 479 l 290 82 l 448 479 l 512 479 l 247 -183 z"},"@":{"x_min":0,"x_max":970,"ha":970,"o":"m 454 46 q 510 46 554 73 q 599 100 625 145 q 652 190 652 247 q 652 303 626 348 q 600 393 555 420 q 510 447 454 447 q 398 447 353 420 q 309 394 282 348 q 256 303 256 247 q 256 190 282 145 q 308 100 353 73 q 398 46 454 46 z m 653 80 l 647 74 q 607 30 554 7 q 506 -14 454 -14 q 401 -14 354 7 q 306 27 271 62 q 236 98 216 146 q 196 193 196 247 q 196 300 216 347 q 236 395 271 430 q 306 465 354 486 q 401 507 454 507 q 506 507 554 486 q 606 463 648 417 l 653 414 l 653 482 l 712 482 l 712 57 q 714 45 732 45 q 740 45 748 48 q 790 59 823 109 q 862 168 862 267 l 861 288 q 857 367 825 434 q 793 501 739 551 q 688 599 624 625 q 559 651 486 651 q 315 646 207 527 q 160 476 134 410 q 108 345 108 271 q 113 99 231 -11 q 282 -58 347 -84 q 411 -110 484 -110 q 493 -110 497 -110 q 501 -110 532 -109 l 534 -169 l 485 -170 q 401 -170 325 -140 q 249 -109 191 -55 q 129 2 91 81 q 51 164 49 271 q 49 355 79 432 q 110 508 163 567 q 220 630 298 668 q 381 708 484 711 q 568 711 645 680 q 721 649 779 595 q 841 538 879 459 q 917 381 921 290 l 921 267 q 921 204 907 156 q 879 63 820 19 q 777 -14 732 -14 q 719 -14 706 -11 q 663 3 653 51 l 653 70 z"},".":{"x_min":0,"x_max":178,"ha":178,"o":"m 89 -15 q 72 -15 60 -2 q 49 10 49 26 q 49 43 61 55 q 73 66 89 66 q 106 66 117 54 q 129 42 129 26 q 129 9 117 -3 q 105 -15 89 -15 z"},"p":{"x_min":0,"x_max":614,"ha":614,"o":"m 308 43 q 362 43 407 70 q 452 97 479 142 q 506 188 506 243 q 506 299 479 344 q 453 390 408 417 q 363 443 308 443 q 253 443 208 417 q 163 390 136 344 q 110 299 110 243 q 110 188 136 143 q 163 98 208 70 q 252 43 308 43 z m 108 -188 l 49 -188 l 49 479 l 108 479 l 108 417 q 114 429 174 466 q 234 503 308 503 q 379 503 438 469 q 496 434 531 374 q 565 315 565 243 q 565 172 531 113 q 496 53 438 18 q 379 -17 308 -17 q 233 -17 174 21 q 114 59 108 69 z"},"X":{"x_min":0,"x_max":617,"ha":617,"o":"m 568 -15 l 499 -15 l 309 297 q 127 0 118 -15 l 49 -14 l 274 355 l 77 678 l 55 715 l 125 714 l 309 412 l 493 715 l 564 715 l 344 355 q 541 31 568 -15 z"},"*":{"x_min":0,"x_max":380,"ha":380,"o":"m 250 580 q 252 579 255 577 q 262 572 267 570 q 272 567 277 564 q 282 561 292 556 q 301 550 331 534 l 302 481 l 221 527 l 221 450 l 161 450 l 161 529 l 79 481 l 49 533 l 130 580 l 49 627 l 79 680 l 161 630 l 161 715 l 221 715 l 221 632 l 301 679 l 331 627 z"},"Y":{"x_min":0,"x_max":609,"ha":609,"o":"m 335 -15 l 275 -15 l 275 345 q 238 406 218 440 q 197 475 185 493 q 174 512 164 529 q 152 546 133 579 q 113 612 74 676 l 49 714 l 120 715 l 306 411 l 491 715 l 560 714 l 335 345 z"},"c":{"x_min":0,"x_max":577,"ha":577,"o":"m 306 -12 q 265 -12 224 2 q 183 16 147 44 q 63 114 51 217 q 49 232 49 249 q 49 291 62 332 q 76 373 104 409 q 173 494 276 507 q 292 508 306 508 q 348 508 389 495 q 430 481 465 453 l 489 435 l 452 387 l 429 406 q 402 427 371 438 q 339 448 308 448 q 295 448 283 447 q 205 438 151 372 q 130 344 119 313 q 109 281 109 249 q 109 236 110 224 q 120 145 185 90 q 212 69 244 58 q 275 48 308 48 q 319 48 331 49 q 409 59 462 125 l 481 149 l 528 111 l 510 87 q 440 2 338 -10 q 322 -12 306 -12 z"},"!":{"x_min":0,"x_max":178,"ha":178,"o":"m 119 109 l 59 109 l 59 715 l 119 715 z m 89 -15 q 72 -15 60 -2 q 49 10 49 26 q 49 43 61 55 q 73 66 89 66 q 106 66 117 54 q 129 42 129 26 q 129 9 117 -3 q 105 -15 89 -15 z"},"/":{"x_min":0,"x_max":710,"ha":710,"o":"m 96 -27 l 49 10 l 615 730 l 662 692 z"},"[":{"x_min":0,"x_max":398,"ha":398,"o":"m 350 -95 l 51 -95 l 51 -90 l 49 -90 l 49 717 l 51 717 l 51 718 l 350 718 l 350 658 l 108 658 l 108 -35 l 350 -35 z"},"6":{"x_min":0,"x_max":545,"ha":545,"o":"m 271 36 q 341 36 388 84 q 436 132 436 203 q 436 273 388 322 q 341 370 271 370 q 201 370 154 322 q 106 273 106 203 q 106 132 154 84 q 201 36 271 36 z m 271 -24 q 226 -24 184 -6 q 143 12 112 42 q 80 76 64 116 q 49 156 49 197 q 49 263 82 329 q 265 692 279 718 l 332 691 q 194 422 193 421 l 194 420 q 197 420 207 423 q 217 425 235 427 q 252 430 271 430 q 317 430 358 412 q 400 394 430 363 q 460 333 478 291 q 496 249 496 203 q 496 157 478 115 q 460 73 430 42 q 400 12 358 -6 q 317 -24 271 -24 z"},"r":{"x_min":0,"x_max":285,"ha":285,"o":"m 118 -15 l 59 -15 l 59 479 l 118 479 l 118 419 q 133 446 236 492 l 236 427 q 180 398 151 353 q 121 308 119 251 q 118 240 118 -15 z"},"2":{"x_min":0,"x_max":508,"ha":508,"o":"m 452 -17 l 49 -17 l 51 30 q 59 87 90 139 q 121 191 164 239 q 207 286 253 330 q 292 369 326 405 q 360 441 380 474 q 399 506 399 535 l 399 541 q 399 549 397 557 q 387 599 346 627 q 327 640 302 647 q 277 655 246 655 l 230 654 q 207 653 181 647 l 174 645 q 161 642 147 637 q 131 632 114 625 l 86 613 l 63 669 q 82 676 85 678 q 97 683 106 686 q 115 689 129 694 q 149 701 167 705 q 198 712 227 714 l 245 715 q 285 715 319 705 q 353 695 379 677 q 440 635 455 571 q 458 558 459 543 l 459 536 q 459 493 435 451 q 411 410 374 370 q 337 329 294 287 q 229 226 176 160 q 123 94 114 43 l 452 43 z"},"{":{"x_min":0,"x_max":413,"ha":413,"o":"m 315 -66 q 268 -66 240 -49 q 213 -31 201 -2 q 188 27 185 61 q 182 95 182 131 q 181 162 178 191 q 175 221 166 243 q 156 265 136 277 q 117 290 79 290 l 49 290 l 49 359 l 79 359 q 117 359 136 372 q 156 384 166 406 q 175 428 178 458 q 181 487 182 518 q 182 554 185 588 q 188 622 201 650 q 213 679 240 697 q 268 715 315 715 l 364 712 l 359 651 l 330 654 l 317 655 q 289 655 275 645 q 261 635 253 616 q 246 598 244 572 q 242 546 241 517 q 241 475 236 435 q 231 395 212 361 q 194 328 185 324 q 194 321 212 287 q 231 254 236 214 q 241 174 241 132 q 242 103 244 77 q 246 51 253 33 q 261 14 275 4 q 289 -6 318 -6 q 324 -6 327 -6 q 331 -5 334 -5 q 338 -5 360 -3 l 364 -62 l 334 -65 z"},"9":{"x_min":0,"x_max":545,"ha":545,"o":"m 273 320 q 344 320 391 368 q 438 416 438 487 q 438 533 417 571 q 396 609 358 631 q 321 653 273 653 q 227 653 189 631 q 152 609 130 571 q 109 533 109 487 q 109 439 131 401 q 153 364 190 342 q 228 320 273 320 z m 266 -29 l 213 -2 l 351 268 l 347 268 l 338 267 q 305 260 273 260 q 228 260 187 278 q 145 296 115 326 q 84 357 67 399 q 49 440 49 487 q 49 533 67 575 q 84 617 115 647 q 145 678 187 696 q 228 713 273 713 q 319 713 361 696 q 402 678 433 647 q 496 583 496 492 q 496 426 463 361 q 280 -2 266 -29 z"}," ":{"x_min":0,"x_max":293,"ha":293,"o":""},"I":{"x_min":0,"x_max":157,"ha":157,"o":"m 108 -15 l 49 -15 l 49 715 l 108 715 z"},"H":{"x_min":0,"x_max":530,"ha":530,"o":"m 481 -14 l 421 -14 l 421 342 l 108 342 l 108 -14 l 49 -14 l 49 715 l 108 715 l 108 402 l 421 402 l 421 715 l 481 715 z"},"4":{"x_min":0,"x_max":458,"ha":458,"o":"m 350 308 l 350 595 l 138 308 z m 409 -17 l 350 -17 l 350 248 l 49 248 l 52 292 l 365 716 l 409 716 z"},"~":{"x_min":0,"x_max":424,"ha":424,"o":"m 282 314 q 261 314 239 321 q 216 328 196 336 q 178 342 163 347 q 147 352 135 352 q 127 352 122 350 q 117 349 113 344 l 93 322 l 49 362 q 73 389 90 401 q 107 413 134 413 q 154 413 175 406 q 196 400 215 393 q 234 385 250 380 q 267 375 280 375 q 291 375 297 378 q 304 381 310 389 l 328 413 l 375 377 q 350 342 331 328 q 311 314 282 314 z"},"D":{"x_min":0,"x_max":596,"ha":596,"o":"m 175 44 q 228 44 276 51 q 379 66 441 152 q 488 235 488 340 q 488 363 485 386 q 472 511 394 588 q 363 617 330 632 q 273 656 183 656 l 108 655 l 108 45 z m 176 -16 l 127 -15 q 96 -15 49 -15 l 49 714 l 132 715 l 203 714 q 263 714 321 698 q 379 682 435 631 q 482 584 509 522 q 547 438 547 341 q 547 219 492 123 l 491 120 q 431 35 345 6 q 281 -16 176 -16 z"},"^":{"x_min":0,"x_max":309,"ha":309,"o":"m 209 553 l 155 651 l 100 553 l 49 582 l 107 715 l 203 715 l 260 582 z"},"0":{"x_min":0,"x_max":711,"ha":711,"o":"m 356 -17 q 271 -17 202 33 q 132 83 91 166 q 49 249 49 348 q 49 447 91 530 q 132 613 202 663 q 271 713 356 713 q 440 713 510 663 q 580 613 621 530 q 663 447 663 348 q 663 249 621 166 q 580 83 510 33 q 440 -17 356 -17 z m 356 43 q 424 43 480 83 q 536 123 570 192 q 603 261 603 348 q 603 413 583 468 q 563 523 529 565 q 495 607 451 630 q 407 653 356 653 q 287 653 231 612 q 175 572 142 502 q 109 433 109 348 q 109 263 142 194 q 174 125 230 84 q 286 43 356 43 z"},"F":{"x_min":0,"x_max":525,"ha":525,"o":"m 108 -15 l 49 -14 l 49 714 l 78 715 l 477 715 l 477 655 l 108 655 l 108 397 l 474 397 l 474 338 l 108 338 z"},"`":{"x_min":0,"x_max":226,"ha":226,"o":"m 127 552 l 49 692 l 118 718 l 177 581 z"},"k":{"x_min":0,"x_max":432,"ha":432,"o":"m 315 -15 q 278 48 260 78 q 243 107 234 123 q 225 138 216 153 q 208 168 191 198 q 174 227 150 267 l 108 220 l 108 -15 l 49 -15 l 49 698 l 108 698 l 108 310 q 121 324 139 344 q 157 365 165 374 q 172 383 180 392 q 188 401 205 420 q 221 438 258 479 l 335 479 q 290 425 277 410 q 264 395 257 387 q 250 380 243 372 q 236 364 223 350 q 210 335 192 314 l 383 -14 z"},"u":{"x_min":0,"x_max":533,"ha":533,"o":"m 267 -14 q 223 -14 182 4 q 142 23 109 61 q 54 126 49 224 l 49 479 l 108 479 l 108 249 l 109 233 q 109 194 121 159 q 133 125 155 99 q 178 73 207 59 q 236 46 267 46 q 297 46 326 59 q 355 73 378 99 q 424 155 424 233 l 424 249 l 424 479 l 484 479 l 484 223 q 479 126 423 61 q 391 23 351 4 q 310 -14 267 -14 z"},"]":{"x_min":0,"x_max":398,"ha":398,"o":"m 347 -95 l 49 -95 l 49 -35 l 290 -35 l 290 658 l 49 658 l 49 718 l 347 718 l 347 717 l 350 717 l 350 -90 l 347 -90 z"},"U":{"x_min":0,"x_max":729,"ha":729,"o":"m 375 -14 l 353 -14 q 268 -11 200 38 q 131 86 91 167 q 51 247 49 345 l 49 715 l 109 715 l 109 351 q 109 266 143 197 q 178 127 234 87 q 291 46 360 46 q 472 46 544 133 q 580 175 600 231 q 620 287 620 351 l 620 715 l 680 715 l 680 343 q 677 246 637 166 q 597 86 529 38 q 461 -11 375 -14 z"},"o":{"x_min":0,"x_max":613,"ha":613,"o":"m 307 43 q 362 43 407 70 q 452 96 478 141 q 504 187 504 243 q 504 300 478 345 q 452 391 407 417 q 362 443 307 443 q 251 443 206 417 q 161 391 135 345 q 108 300 108 243 q 108 188 135 142 q 161 97 206 70 q 250 43 307 43 z m 307 -17 q 236 -17 178 19 q 119 54 84 114 q 49 173 49 243 q 49 314 84 373 q 119 432 177 468 q 236 503 307 503 q 377 503 436 468 q 494 433 529 373 q 564 314 564 243 q 564 190 544 142 q 524 95 489 59 q 454 24 407 3 q 359 -17 307 -17 z"},"N":{"x_min":0,"x_max":721,"ha":721,"o":"m 672 -14 l 620 -14 l 109 610 l 109 -14 l 49 -14 l 49 714 l 102 714 l 612 90 l 612 714 l 672 714 z"},"+":{"x_min":0,"x_max":586,"ha":586,"o":"m 323 71 l 263 71 l 263 296 l 49 296 l 49 356 l 263 356 l 263 564 l 323 564 l 323 356 l 537 356 l 537 296 l 323 296 z"},"G":{"x_min":0,"x_max":767,"ha":767,"o":"m 712 83 q 675 48 646 28 q 616 7 575 -9 q 507 -37 434 -37 q 327 -37 240 16 q 152 68 101 157 q 49 245 49 352 q 49 459 101 548 q 152 636 240 688 q 327 741 434 741 q 506 741 566 718 q 625 695 694 640 l 657 593 q 620 624 596 638 q 572 652 540 663 q 488 681 434 681 q 344 681 271 637 q 197 593 153 518 q 108 444 108 352 q 108 261 152 187 q 196 112 270 68 q 344 23 434 23 q 494 23 551 46 q 609 68 652 109 l 653 331 l 713 331 z"},"q":{"x_min":0,"x_max":615,"ha":615,"o":"m 307 43 q 361 43 406 70 q 451 97 478 143 q 505 188 505 243 q 505 299 478 344 q 451 390 406 417 q 361 443 307 443 q 252 443 207 417 q 162 390 135 344 q 108 299 108 243 q 108 202 124 166 q 139 129 167 102 q 194 74 230 59 q 266 43 307 43 z m 566 -188 l 506 -188 l 506 69 q 500 58 440 21 q 380 -17 307 -17 q 235 -17 177 18 q 118 53 83 113 q 49 172 49 243 q 49 315 83 374 q 118 434 177 469 q 235 503 307 503 q 380 503 440 466 q 500 429 506 417 l 506 479 l 566 479 z"},"d":{"x_min":0,"x_max":614,"ha":614,"o":"m 307 43 q 361 43 406 70 q 451 97 478 143 q 504 188 504 243 q 504 299 478 344 q 451 390 406 417 q 361 443 307 443 q 251 443 207 417 q 162 390 135 344 q 108 299 108 243 q 108 188 135 143 q 162 97 207 70 q 251 43 307 43 z m 307 -17 q 235 -17 177 18 q 118 53 83 113 q 49 172 49 243 q 49 315 83 374 q 118 434 177 469 q 235 503 307 503 q 380 503 440 466 q 500 429 505 418 l 505 698 l 565 698 l 565 -15 l 505 -15 l 505 68 q 500 58 440 20 q 380 -17 307 -17 z"},"1":{"x_min":0,"x_max":227,"ha":227,"o":"m 178 -17 l 118 -17 l 118 595 l 95 567 l 49 605 l 136 712 l 178 712 z"},"5":{"x_min":0,"x_max":598,"ha":598,"o":"m 291 -34 q 220 -34 159 3 q 98 40 63 104 l 49 130 l 102 159 q 125 115 142 93 q 160 72 189 55 q 236 26 291 26 q 345 26 390 53 q 435 80 462 125 q 489 170 489 226 q 489 282 462 327 q 435 373 390 399 q 345 426 291 426 q 247 426 208 408 q 179 394 161 380 q 144 366 123 338 l 70 338 l 70 712 l 472 712 l 472 652 l 130 652 l 130 431 q 184 486 291 486 q 362 486 420 451 q 479 416 514 357 q 549 298 549 226 q 549 154 514 95 q 479 36 420 1 q 362 -34 291 -34 z"}}}
